<svg width="59" height="18" viewBox="0 0 59 18" fill="none" xmlns="http://www.w3.org/2000/svg">
<path d="M3.94 8.14C2.84667 8.14 2.01667 7.79667 1.45 7.11C0.883333 6.42333 0.6 5.53 0.6 4.43C0.6 3.92333 0.663333 3.45333 0.79 3.02C0.923333 2.58 1.11667 2.18667 1.37 1.84C1.63 1.48667 1.97667 1.21 2.41 1.01C2.84333 0.81 3.34 0.71 3.9 0.71C4.66667 0.71 5.29333 0.89 5.78 1.25C6.26667 1.60333 6.6 2.11667 6.78 2.79L5.87 2.98C5.57 2.02667 4.91667 1.55 3.91 1.55C3.15667 1.55 2.57 1.80667 2.15 2.32C1.73 2.83333 1.52 3.54667 1.52 4.46C1.52 5.38 1.73333 6.09 2.16 6.59C2.58667 7.08333 3.18667 7.33 3.96 7.33C4.60667 7.33 5.11 7.17 5.47 6.85C5.83667 6.53 6.02 6.14333 6.02 5.69V4.94H4.03V4.18H6.89V5.54C6.89 6.28 6.63333 6.9 6.12 7.4C5.60667 7.89333 4.88 8.14 3.94 8.14ZM8.1893 8V0.86H10.8093C11.5626 0.86 12.1526 1.04333 12.5793 1.41C13.006 1.77 13.2193 2.27333 13.2193 2.92C13.2193 3.44 13.076 3.87333 12.7893 4.22C12.5026 4.56 12.096 4.78333 11.5693 4.89L13.3093 8H12.2493L10.6693 5.02H9.1093V8H8.1893ZM9.1093 4.19H10.7793C11.2526 4.19 11.6193 4.08333 11.8793 3.87C12.146 3.65667 12.2793 3.36 12.2793 2.98C12.2793 2.10667 11.7726 1.67 10.7593 1.67H9.1093V4.19ZM14.5178 8V0.86H19.3378V1.67H15.4378V3.98H18.6678V4.79H15.4378V7.19H19.3478V8H14.5178ZM20.5631 8V0.86H25.3831V1.67H21.4831V3.98H24.7131V4.79H21.4831V7.19H25.3931V8H20.5631ZM26.6084 8V0.86H27.7184L30.9984 5.75L31.5384 6.61H31.6384L31.6284 5.24V0.86H32.5184V8H31.4584L28.2884 3.31L27.5984 2.25H27.5084L27.5184 3.61V8H26.6084Z" fill="#97D28B"/>
<path d="M34.2455 8V0.86H39.0655V1.67H35.1655V3.98H38.3955V4.79H35.1655V7.19H39.0755V8H34.2455ZM40.2909 8V0.86H42.9109C43.6642 0.86 44.2542 1.04333 44.6809 1.41C45.1075 1.77 45.3209 2.27333 45.3209 2.92C45.3209 3.44 45.1775 3.87333 44.8909 4.22C44.6042 4.56 44.1975 4.78333 43.6709 4.89L45.4109 8H44.3509L42.7709 5.02H41.2109V8H40.2909ZM41.2109 4.19H42.8809C43.3542 4.19 43.7209 4.08333 43.9809 3.87C44.2475 3.65667 44.3809 3.36 44.3809 2.98C44.3809 2.10667 43.8742 1.67 42.8609 1.67H41.2109V4.19ZM49.4994 8.14C48.406 8.14 47.576 7.79667 47.0094 7.11C46.4427 6.42333 46.1594 5.53 46.1594 4.43C46.1594 3.92333 46.2227 3.45333 46.3494 3.02C46.4827 2.58 46.676 2.18667 46.9294 1.84C47.1894 1.48667 47.536 1.21 47.9694 1.01C48.4027 0.81 48.8994 0.71 49.4594 0.71C50.226 0.71 50.8527 0.89 51.3394 1.25C51.826 1.60333 52.1594 2.11667 52.3394 2.79L51.4294 2.98C51.1294 2.02667 50.476 1.55 49.4694 1.55C48.716 1.55 48.1294 1.80667 47.7094 2.32C47.2894 2.83333 47.0794 3.54667 47.0794 4.46C47.0794 5.38 47.2927 6.09 47.7194 6.59C48.146 7.08333 48.746 7.33 49.5194 7.33C50.166 7.33 50.6694 7.17 51.0294 6.85C51.396 6.53 51.5794 6.14333 51.5794 5.69V4.94H49.5894V4.18H52.4494V5.54C52.4494 6.28 52.1927 6.9 51.6794 7.4C51.166 7.89333 50.4394 8.14 49.4994 8.14ZM55.3831 8V5.47L52.8131 0.86H53.8831L55.8331 4.57L57.7931 0.86H58.8531L56.3031 5.47V8H55.3831ZM1.06 17V9.86H5.74V10.67H1.98V13.15H5.1V13.97H1.98V17H1.06ZM9.55633 17.14C8.49633 17.14 7.66633 16.7833 7.06633 16.07C6.47299 15.3567 6.17633 14.4733 6.17633 13.42C6.17633 12.3667 6.47966 11.4867 7.08633 10.78C7.69966 10.0667 8.52299 9.71 9.55633 9.71C10.5897 9.71 11.413 10.0667 12.0263 10.78C12.6397 11.4933 12.9463 12.3733 12.9463 13.42C12.9463 14.4733 12.6463 15.3567 12.0463 16.07C11.453 16.7833 10.623 17.14 9.55633 17.14ZM9.55633 16.32C10.303 16.32 10.8963 16.0567 11.3363 15.53C11.783 15.0033 12.0063 14.3 12.0063 13.42C12.0063 12.5467 11.783 11.8467 11.3363 11.32C10.8897 10.78 10.2963 10.51 9.55633 10.51C8.82966 10.51 8.23966 10.78 7.78633 11.32C7.33966 11.8467 7.11633 12.5467 7.11633 13.42C7.11633 14.3 7.33633 15.0033 7.77633 15.53C8.22299 16.0567 8.81633 16.32 9.55633 16.32ZM14.1858 17V9.86H16.8058C17.5591 9.86 18.1491 10.0433 18.5758 10.41C19.0024 10.77 19.2158 11.2733 19.2158 11.92C19.2158 12.44 19.0724 12.8733 18.7858 13.22C18.4991 13.56 18.0924 13.7833 17.5658 13.89L19.3058 17H18.2458L16.6658 14.02H15.1058V17H14.1858ZM15.1058 13.19H16.7758C17.2491 13.19 17.6158 13.0833 17.8758 12.87C18.1424 12.6567 18.2758 12.36 18.2758 11.98C18.2758 11.1067 17.7691 10.67 16.7558 10.67H15.1058V13.19ZM22.8096 17V9.86H23.7296V16.18H27.4796V17H22.8096ZM28.4252 17V9.86H29.3452V17H28.4252ZM31.0721 17V9.86H35.7521V10.67H31.9921V13.15H35.1121V13.97H31.9921V17H31.0721ZM36.7659 17V9.86H41.5859V10.67H37.6859V12.98H40.9159V13.79H37.6859V16.19H41.5959V17H36.7659Z" fill="#173D33"/>
</svg>
